<svg xmlns="http://www.w3.org/2000/svg" width="38" height="38" viewBox="0 0 38 38">
  <g id="vuesax_broken_radar" data-name="vuesax/broken/radar" transform="translate(-300 -316)">
    <g id="radar" transform="translate(300 316)">
      <path id="Vector" d="M3.6,7.958A4.354,4.354,0,0,1,3.6-.75a1.188,1.188,0,1,1,0,2.375A1.979,1.979,0,1,0,5.583,3.6a1.188,1.188,0,0,1,2.375,0A4.359,4.359,0,0,1,3.6,7.958Z" transform="translate(15.396 15.396)" fill="#66d2b4"/>
      <path id="Vector-2" data-name="Vector" d="M.437,20.625a1.188,1.188,0,0,1-.947-1.9A14.467,14.467,0,0,0,2.417,9.938,14.467,14.467,0,0,0-.51,1.153a1.188,1.188,0,1,1,1.9-1.43A16.824,16.824,0,0,1,4.792,9.938,16.824,16.824,0,0,1,1.385,20.153,1.186,1.186,0,0,1,.437,20.625Z" transform="translate(31.229 9.062)" fill="#66d2b4"/>
      <path id="Vector-3" data-name="Vector" d="M3.605,12.107a1.186,1.186,0,0,1-.949-.472A16.824,16.824,0,0,1-.75,1.419c0-.349.016-.692.033-1.041A1.188,1.188,0,0,1,1.655.5c-.016.33-.03.627-.03.922A14.467,14.467,0,0,0,4.552,10.2a1.188,1.188,0,0,1-.947,1.9Z" transform="translate(2.729 17.581)" fill="#66d2b4"/>
      <path id="Vector-4" data-name="Vector" d="M.437,4.222a1.188,1.188,0,0,1-1.069-1.7,17.217,17.217,0,0,1,1.7-2.79,1.187,1.187,0,1,1,1.9,1.419,14.839,14.839,0,0,0-1.466,2.4A1.188,1.188,0,0,1,.437,4.222Z" transform="translate(4.312 9.062)" fill="#66d2b4"/>
      <path id="Vector-5" data-name="Vector" d="M.437,13.025a1.188,1.188,0,0,1-.949-1.9A8.251,8.251,0,0,0,1.15,6.138,8.251,8.251,0,0,0-.512,1.15a1.188,1.188,0,1,1,1.9-1.425A10.609,10.609,0,0,1,3.525,6.138,10.609,10.609,0,0,1,1.388,12.55,1.186,1.186,0,0,1,.437,13.025Z" transform="translate(26.162 12.862)" fill="#66d2b4"/>
      <path id="Vector-6" data-name="Vector" d="M2.338,13.025a1.186,1.186,0,0,1-.951-.475,10.687,10.687,0,0,1,0-12.825,1.187,1.187,0,1,1,1.9,1.425,8.312,8.312,0,0,0,0,9.975,1.188,1.188,0,0,1-.949,1.9Z" transform="translate(9.062 12.862)" fill="#66d2b4"/>
      <path id="Vector-7" data-name="Vector" d="M0,0H38V38H0Z" fill="none" opacity="0"/>
    </g>
  </g>
</svg>
