<svg xmlns="http://www.w3.org/2000/svg" width="34" height="34" viewBox="0 0 34 34">
  <g id="vuesax_broken_shield-tick" data-name="vuesax/broken/shield-tick" transform="translate(-300 -188)">
    <g id="shield-tick" transform="translate(300 188)">
      <path id="Vector" d="M2.593,7.467a1.059,1.059,0,0,1-.751-.311L-.439,4.875a1.062,1.062,0,0,1,1.5-1.5L2.593,4.9l5.34-5.34a1.062,1.062,0,1,1,1.5,1.5L3.345,7.155A1.059,1.059,0,0,1,2.593,7.467Z" transform="translate(12.508 12.692)" fill="#66d2b4"/>
      <path id="Vector-2" data-name="Vector" d="M12.5,29.7a7.14,7.14,0,0,1-4.279-1.339L2.128,23.819A7.939,7.939,0,0,1-.75,18.095V7.569A5.953,5.953,0,0,1,2.9,2.309L9.968-.353a8.191,8.191,0,0,1,5.025,0l7.07,2.65a5.964,5.964,0,0,1,3.65,5.273,1.063,1.063,0,0,1-2.125,0,3.877,3.877,0,0,0-2.27-3.283l-7.07-2.649a6.054,6.054,0,0,0-3.534,0L3.648,4.3a3.866,3.866,0,0,0-2.273,3.27V18.095A5.849,5.849,0,0,0,3.4,22.117l6.091,4.547a5.371,5.371,0,0,0,6.008,0l6.095-4.55a5.849,5.849,0,0,0,2.024-4.022V13.108a1.063,1.063,0,0,1,2.125,0v4.987a7.939,7.939,0,0,1-2.877,5.724l-6.092,4.548A7.138,7.138,0,0,1,12.5,29.7Z" transform="translate(4.518 2.518)" fill="#66d2b4"/>
      <path id="Vector-3" data-name="Vector" d="M0,0H34V34H0Z" fill="none" opacity="0"/>
    </g>
  </g>
</svg>
