<svg id="Group_2" data-name="Group 2" xmlns="http://www.w3.org/2000/svg" xmlns:xlink="http://www.w3.org/1999/xlink" width="122" height="29.206" viewBox="0 0 122 29.206">
  <defs>
    <clipPath id="clip-path">
      <rect id="Rectangle_1" data-name="Rectangle 1" width="122" height="29.206" fill="none"/>
    </clipPath>
  </defs>
  <g id="Group_1" data-name="Group 1" clip-path="url(#clip-path)">
    <path id="Path_1" data-name="Path 1" d="M553.836,33.288a1.407,1.407,0,1,1-.009,0Zm-.017.241a1.133,1.133,0,0,0,.017,2.265,1.079,1.079,0,0,0,1.077-1.128,1.093,1.093,0,0,0-1.086-1.137h-.009Zm-.241,1.886h-.267V33.977a2.755,2.755,0,0,1,.5-.044.723.723,0,0,1,.457.112.363.363,0,0,1-.138.646v.017a.434.434,0,0,1,.241.345,1.118,1.118,0,0,0,.1.362H554.2a1,1,0,0,1-.112-.379c-.034-.154-.129-.223-.336-.223h-.172Zm0-.81h.181c.2,0,.371-.061.371-.232,0-.138-.086-.232-.345-.232a1.041,1.041,0,0,0-.206.017Z" transform="translate(-433.223 -26.105)" fill="#66d2b4"/>
    <path id="Path_2" data-name="Path 2" d="M189.671,61.346a5.65,5.65,0,0,1-3.049,5.027,17.508,17.508,0,0,1-15.086,0,5.647,5.647,0,0,1-3.052-5.027V56.305a5.65,5.65,0,0,1,3.05-5.027h0a17.513,17.513,0,0,1,15.087,0,5.65,5.65,0,0,1,3.049,5.027v5.041ZM172.5,56.305v5.041a1.626,1.626,0,0,0,.89,1.467,13.6,13.6,0,0,0,11.376,0,1.625,1.625,0,0,0,.891-1.467V56.305a1.627,1.627,0,0,0-.891-1.467,13.6,13.6,0,0,0-11.376,0,1.626,1.626,0,0,0-.89,1.467" transform="translate(-132.129 -38.874)" fill="#66d2b4"/>
    <path id="Path_3" data-name="Path 3" d="M280.88,42.07a13.6,13.6,0,0,1,11.378,0,1.626,1.626,0,0,1,.891,1.467v5.041a1.624,1.624,0,0,1-.891,1.467,13.609,13.609,0,0,1-11.378,0,1.626,1.626,0,0,1-.891-1.467V43.536a1.627,1.627,0,0,1,.891-1.467m-4.9,6.507a5.649,5.649,0,0,0,3.051,5.027,17.513,17.513,0,0,0,15.088,0,5.649,5.649,0,0,0,3.049-5.027V43.536a5.65,5.65,0,0,0-3.049-5.027,17.652,17.652,0,0,0-14.125-.449V33.539a.25.25,0,0,0-.251-.251.252.252,0,0,0-.1.02l-3.359,1.679a.511.511,0,0,0-.16.108.5.5,0,0,0-.147.354V48.577Z" transform="translate(-216.425 -26.105)" fill="#66d2b4"/>
    <path id="Path_4" data-name="Path 4" d="M443.3,35.524a1.069,1.069,0,0,1-.577.952,3.325,3.325,0,0,1-2.859,0,1.072,1.072,0,0,1-.578-.952v-.961a1.07,1.07,0,0,1,.578-.952,3.315,3.315,0,0,1,2.859,0,1.067,1.067,0,0,1,.577.952Z" transform="translate(-344.5 -26.105)" fill="#66d2b4"/>
    <path id="Path_5" data-name="Path 5" d="M387.487,35.524a1.07,1.07,0,0,1-.578.952,3.326,3.326,0,0,1-2.859,0,1.071,1.071,0,0,1-.577-.952v-.961a1.069,1.069,0,0,1,.577-.952,3.315,3.315,0,0,1,2.859,0,1.069,1.069,0,0,1,.578.952Z" transform="translate(-300.727 -26.105)" fill="#66d2b4"/>
    <path id="Path_6" data-name="Path 6" d="M415.393,54.08a.251.251,0,0,1-.251.25h-3.513a.251.251,0,0,1-.251-.25v-18.6a.506.506,0,0,1,.147-.355.523.523,0,0,1,.16-.108l3.359-1.679a.254.254,0,0,1,.274.055.247.247,0,0,1,.074.178Z" transform="translate(-322.611 -26.127)" fill="#66d2b4"/>
    <path id="Path_7" data-name="Path 7" d="M439.289,56.376a.505.505,0,0,1,.306-.463l3.36-1.679a.269.269,0,0,1,.1-.02.249.249,0,0,1,.177.073.253.253,0,0,1,.074.178v16a.25.25,0,0,1-.251.25h-3.513a.25.25,0,0,1-.25-.25Z" transform="translate(-344.5 -42.517)" fill="#66d2b4"/>
    <path id="Path_8" data-name="Path 8" d="M387.487,56.376a.5.5,0,0,0-.147-.355.517.517,0,0,0-.16-.108l-3.359-1.679a.27.27,0,0,0-.1-.02.25.25,0,0,0-.251.251v16a.251.251,0,0,0,.251.25h3.513a.25.25,0,0,0,.25-.25Z" transform="translate(-300.728 -42.517)" fill="#66d2b4"/>
    <path id="Path_9" data-name="Path 9" d="M4.015,56.309a1.628,1.628,0,0,1,.89-1.467,13.792,13.792,0,0,1,10.262-.486V66.83a.25.25,0,0,0,.251.25h3.513a.251.251,0,0,0,.251-.25V54.357a13.787,13.787,0,0,1,10.261.485,1.625,1.625,0,0,1,.891,1.467V66.83a.25.25,0,0,0,.251.25H34.1a.252.252,0,0,0,.251-.25V56.309a5.65,5.65,0,0,0-3.05-5.027,17.65,17.65,0,0,0-14.123-.449,17.651,17.651,0,0,0-14.124.449A5.649,5.649,0,0,0,0,56.309V66.83a.251.251,0,0,0,.251.25H3.764a.25.25,0,0,0,.251-.25V56.309Z" transform="translate(0 -38.878)" fill="#66d2b4"/>
    <path id="Path_10" data-name="Path 10" d="M467.2,56.305a5.65,5.65,0,0,1,3.05-5.027h0a17.518,17.518,0,0,1,15.089,0,5.643,5.643,0,0,1,2.849,3.532h-4.761a13.622,13.622,0,0,0-11.322.028,1.626,1.626,0,0,0-.89,1.467v.513h16.923a.252.252,0,0,1,.251.25v4.277a5.651,5.651,0,0,1-3.051,5.027,17.509,17.509,0,0,1-15.086,0,5.644,5.644,0,0,1-2.852-3.533h4.761a13.625,13.625,0,0,0,11.322-.026,1.625,1.625,0,0,0,.89-1.467v-.514H467.447a.251.251,0,0,1-.251-.251Z" transform="translate(-366.385 -38.874)" fill="#66d2b4"/>
    <path id="Path_11" data-name="Path 11" d="M157.793,29.892a.258.258,0,0,1-.14.23.805.805,0,0,1-.692,0,.259.259,0,0,1-.139-.23v-.233a.258.258,0,0,1,.139-.23.8.8,0,0,1,.692,0,.258.258,0,0,1,.14.23Z" transform="translate(-122.983 -23.018)" fill="#d9272e"/>
    <path id="Path_12" data-name="Path 12" d="M139.672,29.892a.259.259,0,0,1-.14.23.805.805,0,0,1-.692,0,.259.259,0,0,1-.14-.23v-.233a.258.258,0,0,1,.14-.23.8.8,0,0,1,.692,0,.259.259,0,0,1,.14.23Z" transform="translate(-108.772 -23.018)" fill="#d9272e"/>
    <path id="Path_13" data-name="Path 13" d="M146.421,29.892a.259.259,0,0,1-.14.23.805.805,0,0,1-.692,0,.259.259,0,0,1-.14-.23v-.233a.258.258,0,0,1,.14-.23.8.8,0,0,1,.692,0,.259.259,0,0,1,.14.23Z" transform="translate(-114.065 -23.018)" fill="#d9272e"/>
    <path id="Path_14" data-name="Path 14" d="M110.18,29.892a.258.258,0,0,1-.139.23.805.805,0,0,1-.692,0,.259.259,0,0,1-.14-.23v-.233a.259.259,0,0,1,.14-.23.8.8,0,0,1,.692,0,.258.258,0,0,1,.139.23Z" transform="translate(-85.644 -23.018)" fill="#d9272e"/>
    <path id="Path_15" data-name="Path 15" d="M116.929,29.892a.258.258,0,0,1-.139.23.805.805,0,0,1-.692,0,.259.259,0,0,1-.14-.23v-.233a.258.258,0,0,1,.14-.23.8.8,0,0,1,.692,0,.258.258,0,0,1,.139.23Z" transform="translate(-90.937 -23.018)" fill="#d9272e"/>
    <path id="Path_16" data-name="Path 16" d="M170.948,8.535a2.407,2.407,0,0,0,1.522-.188.772.772,0,0,0,.213-.164,4.239,4.239,0,0,0,3.619-.014,1.367,1.367,0,0,0,.738-1.216V5.735a1.367,1.367,0,0,0-.738-1.216,4.268,4.268,0,0,0-3.416-.109V4.167a.061.061,0,0,0-.061-.061.058.058,0,0,0-.024,0l-.812.406a.111.111,0,0,0-.039.026.12.12,0,0,0-.036.085l0,2.783a.12.12,0,0,1-.065.108,1,1,0,0,1-.839,0,.12.12,0,0,1-.066-.108V5.735a1.367,1.367,0,0,0-.737-1.216,4.234,4.234,0,0,0-3.648,0,1.366,1.366,0,0,0-.738,1.216V6.954a1.366,1.366,0,0,0,.737,1.216h0a4.269,4.269,0,0,0,3.415.108v.5a.393.393,0,0,1-.216.355,3.294,3.294,0,0,1-2.738.006h-1.151a1.363,1.363,0,0,0,.69.854,4.234,4.234,0,0,0,3.648,0,1.368,1.368,0,0,0,.738-1.216Zm-.972-1.581a.393.393,0,0,1-.215.355,3.288,3.288,0,0,1-2.751,0,.393.393,0,0,1-.215-.355V5.735a.393.393,0,0,1,.215-.355,3.288,3.288,0,0,1,2.751,0,.393.393,0,0,1,.215.355Zm6.093,0a.392.392,0,0,1-.216.355,3.292,3.292,0,0,1-2.752,0,.393.393,0,0,1-.215-.355V5.735a.394.394,0,0,1,.215-.355,3.29,3.29,0,0,1,2.752,0,.394.394,0,0,1,.216.355Z" transform="translate(-130.043 -3.22)" fill="#d9272e"/>
    <path id="Path_17" data-name="Path 17" d="M73.424,1.092h-.85a.061.061,0,0,0-.061.06V3.936a.273.273,0,0,1-.15.246,2.286,2.286,0,0,1-1.912,0,.273.273,0,0,1-.149-.246V1.153a.061.061,0,0,0-.061-.06h-.85a.061.061,0,0,0-.061.06V3.936a.273.273,0,0,1-.15.246,2.287,2.287,0,0,1-1.912,0,.273.273,0,0,1-.15-.246l0-3.875A.058.058,0,0,0,67.1.018.061.061,0,0,0,67.056,0a.057.057,0,0,0-.024,0L66.22.411a.122.122,0,0,0-.074.112l0,3.413a.273.273,0,0,1-.15.246,2.286,2.286,0,0,1-1.912,0,.273.273,0,0,1-.149-.246V1.153a.061.061,0,0,0-.061-.06h-.85a.06.06,0,0,0-.061.06V3.936a.273.273,0,0,1-.149.246,2.287,2.287,0,0,1-1.912,0,.274.274,0,0,1-.148-.209l0-2.82a.06.06,0,0,0-.061-.06h-.85a.061.061,0,0,0-.061.06V3.936a.273.273,0,0,1-.149.246,2.286,2.286,0,0,1-1.912,0,.273.273,0,0,1-.15-.246l0-2.783a.06.06,0,0,0-.061-.06h-.85a.061.061,0,0,0-.061.06l0,2.783a.273.273,0,0,1-.15.246,2.287,2.287,0,0,1-1.912,0,.273.273,0,0,1-.15-.246l0-2.783a.06.06,0,0,0-.061-.06h-.85a.06.06,0,0,0-.06.06l0,4.4a.393.393,0,0,1-.215.355,3.288,3.288,0,0,1-2.751,0h-1.14a1.365,1.365,0,0,0,.692.861,4.234,4.234,0,0,0,3.648,0,1.367,1.367,0,0,0,.737-1.216V5.185a3.47,3.47,0,0,0,2.584-.158,1.03,1.03,0,0,0,.111-.069,1.1,1.1,0,0,0,.114.069h0a3.432,3.432,0,0,0,2.957,0,1.141,1.141,0,0,0,.112-.068,1.226,1.226,0,0,0,.112.068,3.434,3.434,0,0,0,2.957,0,1.2,1.2,0,0,0,.112-.068,1.2,1.2,0,0,0,.112.068,3.434,3.434,0,0,0,2.957,0,1.141,1.141,0,0,0,.112-.068,1.22,1.22,0,0,0,.112.068h0a3.433,3.433,0,0,0,2.957,0,1.079,1.079,0,0,0,.111-.069,1.1,1.1,0,0,0,.114.069,3.434,3.434,0,0,0,2.957,0,1.108,1.108,0,0,0,.6-.985V1.153a.062.062,0,0,0-.062-.06" transform="translate(-38.675)" fill="#d9272e"/>
  </g>
</svg>
