<svg id="Group_1650" data-name="Group 1650" xmlns="http://www.w3.org/2000/svg" xmlns:xlink="http://www.w3.org/1999/xlink" width="167.02" height="39.984" viewBox="0 0 167.02 39.984">
  <defs>
    <clipPath id="clip-path">
      <rect id="Rectangle_1" data-name="Rectangle 1" width="167.02" height="39.984" fill="#fff"/>
    </clipPath>
  </defs>
  <g id="Group_1" data-name="Group 1" clip-path="url(#clip-path)">
    <path id="Path_1" data-name="Path 1" d="M554.357,33.288a1.927,1.927,0,1,1-.012,0Zm-.023.33a1.551,1.551,0,0,0,.024,3.1,1.477,1.477,0,0,0,1.475-1.544,1.5,1.5,0,0,0-1.486-1.556h-.012ZM554,36.2h-.366V34.232a3.772,3.772,0,0,1,.683-.06.99.99,0,0,1,.626.153.5.5,0,0,1-.189.885v.023a.594.594,0,0,1,.329.472,1.531,1.531,0,0,0,.142.5h-.378a1.37,1.37,0,0,1-.153-.519c-.047-.212-.177-.305-.46-.305H554Zm0-1.109h.247c.271,0,.507-.083.507-.318,0-.189-.118-.318-.472-.318a1.424,1.424,0,0,0-.283.023Z" transform="translate(-389.236 -23.455)" fill="#fff"/>
    <path id="Path_2" data-name="Path 2" d="M197.489,65.691a7.734,7.734,0,0,1-4.174,6.881,23.968,23.968,0,0,1-20.652,0,7.731,7.731,0,0,1-4.178-6.881v-6.9a7.735,7.735,0,0,1,4.175-6.882h0a23.975,23.975,0,0,1,20.654,0,7.735,7.735,0,0,1,4.174,6.882v6.9Zm-23.508-6.9v6.9A2.226,2.226,0,0,0,175.2,67.7a18.624,18.624,0,0,0,15.574,0,2.224,2.224,0,0,0,1.219-2.008v-6.9a2.227,2.227,0,0,0-1.219-2.008,18.617,18.617,0,0,0-15.574,0,2.226,2.226,0,0,0-1.219,2.008" transform="translate(-118.714 -34.927)" fill="#fff"/>
    <path id="Path_3" data-name="Path 3" d="M282.69,45.31a18.624,18.624,0,0,1,15.577,0,2.226,2.226,0,0,1,1.219,2.008v6.9a2.224,2.224,0,0,1-1.219,2.008,18.63,18.63,0,0,1-15.577,0,2.227,2.227,0,0,1-1.22-2.008v-6.9a2.227,2.227,0,0,1,1.22-2.008m-6.715,8.909a7.734,7.734,0,0,0,4.176,6.881,23.976,23.976,0,0,0,20.656,0,7.734,7.734,0,0,0,4.175-6.881v-6.9a7.735,7.735,0,0,0-4.175-6.882,24.166,24.166,0,0,0-19.337-.615V33.632a.343.343,0,0,0-.476-.317l-4.6,2.3a.7.7,0,0,0-.219.148.686.686,0,0,0-.2.485V54.219Z" transform="translate(-194.451 -23.455)" fill="#fff"/>
    <path id="Path_4" data-name="Path 4" d="M444.785,36.35a1.464,1.464,0,0,1-.79,1.3,4.552,4.552,0,0,1-3.914,0,1.468,1.468,0,0,1-.791-1.3V35.035a1.465,1.465,0,0,1,.791-1.3,4.538,4.538,0,0,1,3.914,0,1.461,1.461,0,0,1,.79,1.3Z" transform="translate(-309.521 -23.454)" fill="#fff"/>
    <path id="Path_5" data-name="Path 5" d="M388.968,36.35a1.465,1.465,0,0,1-.791,1.3,4.553,4.553,0,0,1-3.915,0,1.466,1.466,0,0,1-.79-1.3V35.035a1.463,1.463,0,0,1,.79-1.3,4.539,4.539,0,0,1,3.915,0,1.463,1.463,0,0,1,.791,1.3Z" transform="translate(-270.193 -23.454)" fill="#fff"/>
    <path id="Path_6" data-name="Path 6" d="M416.875,61.742a.343.343,0,0,1-.343.343h-4.81a.343.343,0,0,1-.344-.343V36.274a.693.693,0,0,1,.2-.486.717.717,0,0,1,.219-.148l4.6-2.3a.348.348,0,0,1,.376.075.338.338,0,0,1,.1.243Z" transform="translate(-289.855 -23.474)" fill="#fff"/>
    <path id="Path_7" data-name="Path 7" d="M439.289,57.174a.692.692,0,0,1,.418-.633l4.6-2.3a.368.368,0,0,1,.134-.027.341.341,0,0,1,.242.1.346.346,0,0,1,.1.244V76.467a.343.343,0,0,1-.344.343h-4.81a.343.343,0,0,1-.342-.343Z" transform="translate(-309.521 -38.2)" fill="#fff"/>
    <path id="Path_8" data-name="Path 8" d="M388.969,57.174a.684.684,0,0,0-.2-.485.708.708,0,0,0-.219-.148l-4.6-2.3a.369.369,0,0,0-.134-.027.342.342,0,0,0-.344.344V76.467a.343.343,0,0,0,.344.343h4.809a.342.342,0,0,0,.343-.343Z" transform="translate(-270.193 -38.2)" fill="#fff"/>
    <path id="Path_9" data-name="Path 9" d="M5.5,58.794a2.228,2.228,0,0,1,1.219-2.008,18.881,18.881,0,0,1,14.049-.665V73.2a.343.343,0,0,0,.344.343h4.809a.343.343,0,0,0,.344-.343V56.122a18.875,18.875,0,0,1,14.047.664,2.225,2.225,0,0,1,1.219,2.008V73.2a.343.343,0,0,0,.344.343H46.68a.344.344,0,0,0,.344-.343v-14.4a7.735,7.735,0,0,0-4.176-6.882A24.163,24.163,0,0,0,23.513,51.3a24.164,24.164,0,0,0-19.337.615A7.734,7.734,0,0,0,0,58.794V73.2a.344.344,0,0,0,.344.343H5.153A.343.343,0,0,0,5.5,73.2v-14.4Z" transform="translate(0 -34.93)" fill="#fff"/>
    <path id="Path_10" data-name="Path 10" d="M467.2,58.79a7.735,7.735,0,0,1,4.175-6.882h0a23.982,23.982,0,0,1,20.657,0,7.726,7.726,0,0,1,3.9,4.836H489.41a18.648,18.648,0,0,0-15.5.038,2.226,2.226,0,0,0-1.219,2.008v.7H495.86a.344.344,0,0,1,.344.343v5.856a7.736,7.736,0,0,1-4.177,6.881,23.971,23.971,0,0,1-20.654,0,7.726,7.726,0,0,1-3.9-4.837h6.518a18.653,18.653,0,0,0,15.5-.036,2.224,2.224,0,0,0,1.219-2.008v-.7H467.54a.343.343,0,0,1-.344-.343Z" transform="translate(-329.184 -34.927)" fill="#fff"/>
    <path id="Path_11" data-name="Path 11" d="M158.151,30.092a.353.353,0,0,1-.191.315,1.1,1.1,0,0,1-.947,0,.355.355,0,0,1-.191-.315v-.318a.354.354,0,0,1,.191-.315,1.1,1.1,0,0,1,.947,0,.353.353,0,0,1,.191.315Z" transform="translate(-110.496 -20.681)" fill="#fff"/>
    <path id="Path_12" data-name="Path 12" d="M140.03,30.092a.354.354,0,0,1-.191.315,1.1,1.1,0,0,1-.947,0,.354.354,0,0,1-.191-.315v-.318a.354.354,0,0,1,.191-.315,1.1,1.1,0,0,1,.947,0,.354.354,0,0,1,.191.315Z" transform="translate(-97.728 -20.681)" fill="#fff"/>
    <path id="Path_13" data-name="Path 13" d="M146.779,30.092a.354.354,0,0,1-.191.315,1.1,1.1,0,0,1-.947,0,.354.354,0,0,1-.191-.315v-.318a.354.354,0,0,1,.191-.315,1.1,1.1,0,0,1,.947,0,.354.354,0,0,1,.191.315Z" transform="translate(-102.483 -20.681)" fill="#fff"/>
    <path id="Path_14" data-name="Path 14" d="M110.538,30.092a.353.353,0,0,1-.191.315,1.1,1.1,0,0,1-.947,0,.355.355,0,0,1-.191-.315v-.318a.354.354,0,0,1,.191-.315,1.1,1.1,0,0,1,.947,0,.353.353,0,0,1,.191.315Z" transform="translate(-76.948 -20.681)" fill="#fff"/>
    <path id="Path_15" data-name="Path 15" d="M117.287,30.092a.354.354,0,0,1-.191.315,1.1,1.1,0,0,1-.947,0,.354.354,0,0,1-.191-.315v-.318a.354.354,0,0,1,.191-.315,1.1,1.1,0,0,1,.947,0,.353.353,0,0,1,.191.315Z" transform="translate(-81.704 -20.681)" fill="#fff"/>
    <path id="Path_16" data-name="Path 16" d="M172.839,10.169a3.3,3.3,0,0,0,2.084-.257,1.056,1.056,0,0,0,.291-.225,5.8,5.8,0,0,0,4.955-.019A1.871,1.871,0,0,0,181.179,8V6.336a1.872,1.872,0,0,0-1.01-1.664,5.844,5.844,0,0,0-4.676-.149V4.189a.084.084,0,0,0-.083-.083.08.08,0,0,0-.032.007l-1.112.556a.152.152,0,0,0-.053.036.164.164,0,0,0-.049.117l0,3.81a.164.164,0,0,1-.09.148,1.375,1.375,0,0,1-1.148,0,.164.164,0,0,1-.09-.148v-2.3a1.871,1.871,0,0,0-1.009-1.664,5.8,5.8,0,0,0-4.994,0,1.871,1.871,0,0,0-1.01,1.664V8a1.871,1.871,0,0,0,1.009,1.664h0a5.844,5.844,0,0,0,4.676.148v.68a.538.538,0,0,1-.3.486,4.51,4.51,0,0,1-3.748.009H165.89a1.866,1.866,0,0,0,.944,1.17,5.8,5.8,0,0,0,4.994,0,1.873,1.873,0,0,0,1.011-1.664ZM171.508,8a.538.538,0,0,1-.295.486,4.5,4.5,0,0,1-3.766,0A.538.538,0,0,1,167.153,8V6.336a.538.538,0,0,1,.295-.486,4.5,4.5,0,0,1,3.766,0,.538.538,0,0,1,.295.486Zm8.341,0a.537.537,0,0,1-.3.486,4.507,4.507,0,0,1-3.767,0A.538.538,0,0,1,175.493,8V6.336a.54.54,0,0,1,.295-.486,4.5,4.5,0,0,1,3.767,0,.539.539,0,0,1,.3.486Z" transform="translate(-116.839 -2.893)" fill="#fff"/>
    <path id="Path_17" data-name="Path 17" d="M82.32,1.5H81.157a.083.083,0,0,0-.083.083v3.81a.373.373,0,0,1-.205.337,3.129,3.129,0,0,1-2.617,0,.373.373,0,0,1-.2-.337V1.578a.083.083,0,0,0-.083-.083H76.8a.083.083,0,0,0-.083.083l0,3.81a.374.374,0,0,1-.2.337,3.131,3.131,0,0,1-2.618,0,.374.374,0,0,1-.2-.337l-.007-5.3A.08.08,0,0,0,73.66.024.083.083,0,0,0,73.6,0a.078.078,0,0,0-.032.006L72.457.562a.167.167,0,0,0-.1.153l.007,4.673a.373.373,0,0,1-.205.337,3.129,3.129,0,0,1-2.617,0,.373.373,0,0,1-.2-.337V1.578a.083.083,0,0,0-.083-.083H68.09a.083.083,0,0,0-.083.083v3.81a.374.374,0,0,1-.2.337,3.131,3.131,0,0,1-2.618,0,.375.375,0,0,1-.2-.286l0-3.861A.083.083,0,0,0,64.9,1.5H63.733a.083.083,0,0,0-.083.083v3.81a.374.374,0,0,1-.2.337,3.129,3.129,0,0,1-2.617,0,.374.374,0,0,1-.2-.337l0-3.81a.083.083,0,0,0-.083-.083H59.376a.083.083,0,0,0-.083.083l0,3.81a.373.373,0,0,1-.205.337,3.131,3.131,0,0,1-2.618,0,.374.374,0,0,1-.2-.337l-.007-3.81a.083.083,0,0,0-.083-.083H55.015a.083.083,0,0,0-.083.083L54.938,7.6a.538.538,0,0,1-.295.486,4.5,4.5,0,0,1-3.766,0h-1.56a1.869,1.869,0,0,0,.947,1.179,5.8,5.8,0,0,0,4.994,0A1.872,1.872,0,0,0,56.267,7.6V7.1a4.751,4.751,0,0,0,3.538-.216,1.41,1.41,0,0,0,.152-.095,1.506,1.506,0,0,0,.156.095h0a4.7,4.7,0,0,0,4.048,0,1.562,1.562,0,0,0,.154-.093,1.678,1.678,0,0,0,.154.093,4.7,4.7,0,0,0,4.049,0,1.638,1.638,0,0,0,.154-.093,1.639,1.639,0,0,0,.154.093,4.7,4.7,0,0,0,4.049,0,1.562,1.562,0,0,0,.154-.093,1.67,1.67,0,0,0,.153.093h0a4.7,4.7,0,0,0,4.048,0,1.478,1.478,0,0,0,.152-.095,1.506,1.506,0,0,0,.156.095,4.7,4.7,0,0,0,4.049,0A1.517,1.517,0,0,0,82.4,5.534V1.578A.085.085,0,0,0,82.32,1.5" transform="translate(-34.749)" fill="#fff"/>
  </g>
</svg>
